<?xml version="1.0" encoding="UTF-8" standalone="no"?>
<!-- Created with Inkscape (http://www.inkscape.org/) -->

<svg
   xmlns:dc="http://purl.org/dc/elements/1.1/"
   xmlns:cc="http://creativecommons.org/ns#"
   xmlns:rdf="http://www.w3.org/1999/02/22-rdf-syntax-ns#"
   xmlns:svg="http://www.w3.org/2000/svg"
   xmlns="http://www.w3.org/2000/svg"
   xmlns:xlink="http://www.w3.org/1999/xlink"
   xmlns:sodipodi="http://sodipodi.sourceforge.net/DTD/sodipodi-0.dtd"
   xmlns:inkscape="http://www.inkscape.org/namespaces/inkscape"
   width="744.09448819"
   height="1052.3622047"
   id="svg2"
   version="1.1"
   inkscape:version="0.48.3.1 r9886"
   sodipodi:docname="tools1.svg">
  <defs
     id="defs4">
    <inkscape:path-effect
       is_visible="true"
       id="path-effect4372"
       effect="spiro" />
    <inkscape:path-effect
       is_visible="true"
       id="path-effect4364"
       effect="spiro" />
    <inkscape:path-effect
       is_visible="true"
       id="path-effect4360"
       effect="spiro" />
    <inkscape:path-effect
       effect="spiro"
       id="path-effect4352"
       is_visible="true" />
    <inkscape:path-effect
       effect="spiro"
       id="path-effect4322"
       is_visible="true" />
    <inkscape:path-effect
       effect="spiro"
       id="path-effect4282"
       is_visible="true" />
    <inkscape:path-effect
       is_visible="true"
       id="path-effect4064"
       effect="spiro" />
    <inkscape:path-effect
       effect="spiro"
       id="path-effect4024"
       is_visible="true" />
    <inkscape:path-effect
       effect="spiro"
       id="path-effect4009"
       is_visible="true" />
    <inkscape:path-effect
       is_visible="true"
       id="path-effect3953"
       effect="spiro" />
    <inkscape:path-effect
       effect="spiro"
       id="path-effect3900"
       is_visible="true" />
    <inkscape:path-effect
       effect="spiro"
       id="path-effect3892"
       is_visible="true" />
    <inkscape:path-effect
       is_visible="true"
       id="path-effect3864"
       effect="spiro" />
    <inkscape:path-effect
       is_visible="true"
       id="path-effect3862"
       effect="spiro" />
    <linearGradient
       id="linearGradient3805">
      <stop
         style="stop-color:#dadada;stop-opacity:1;"
         offset="0"
         id="stop3807" />
      <stop
         style="stop-color:#000000;stop-opacity:0;"
         offset="1"
         id="stop3809" />
    </linearGradient>
    <inkscape:path-effect
       is_visible="true"
       id="path-effect3802"
       effect="spiro" />
    <inkscape:path-effect
       is_visible="true"
       id="path-effect3797"
       effect="spiro" />
    <inkscape:path-effect
       is_visible="true"
       id="path-effect3785"
       effect="spiro" />
    <inkscape:path-effect
       effect="spiro"
       id="path-effect2999"
       is_visible="true" />
    <inkscape:path-effect
       effect="spiro"
       id="path-effect2991"
       is_visible="true" />
    <filter
       inkscape:collect="always"
       id="filter3856">
      <feGaussianBlur
         inkscape:collect="always"
         stdDeviation="0.40100327"
         id="feGaussianBlur3858" />
    </filter>
    <linearGradient
       inkscape:collect="always"
       xlink:href="#linearGradient3805"
       id="linearGradient3876"
       gradientUnits="userSpaceOnUse"
       gradientTransform="translate(15.09375,832)"
       x1="206.46875"
       y1="108.9375"
       x2="177.90179"
       y2="76.973213" />
    <linearGradient
       inkscape:collect="always"
       xlink:href="#linearGradient3805"
       id="linearGradient4093"
       gradientUnits="userSpaceOnUse"
       x1="239.5"
       y1="997.24823"
       x2="284.28125"
       y2="997.24823" />
    <linearGradient
       inkscape:collect="always"
       xlink:href="#linearGradient3805"
       id="linearGradient4250"
       x1="450.61761"
       y1="941.1673"
       x2="430.30121"
       y2="952.36212"
       gradientUnits="userSpaceOnUse" />
    <linearGradient
       inkscape:collect="always"
       xlink:href="#linearGradient3805"
       id="linearGradient4258"
       gradientUnits="userSpaceOnUse"
       x1="450.61761"
       y1="941.1673"
       x2="430.30121"
       y2="952.36212" />
  </defs>
  <sodipodi:namedview
     id="base"
     pagecolor="#ffffff"
     bordercolor="#666666"
     borderopacity="1.0"
     inkscape:pageopacity="0.0"
     inkscape:pageshadow="2"
     inkscape:zoom="2.8284271"
     inkscape:cx="626.51013"
     inkscape:cy="144.27355"
     inkscape:document-units="px"
     inkscape:current-layer="g3868"
     showgrid="false"
     showguides="true"
     inkscape:guide-bbox="true"
     inkscape:window-width="1920"
     inkscape:window-height="1056"
     inkscape:window-x="0"
     inkscape:window-y="24"
     inkscape:window-maximized="1">
    <sodipodi:guide
       orientation="1,0"
       position="100,1019"
       id="guide3860" />
    <sodipodi:guide
       orientation="0,1"
       position="-4,100"
       id="guide3866" />
    <sodipodi:guide
       orientation="0,1"
       position="19,-0.5"
       id="guide3878" />
    <sodipodi:guide
       orientation="1,0"
       position="0,125"
       id="guide3880" />
    <sodipodi:guide
       orientation="1,0"
       position="200,193.1875"
       id="guide3902" />
    <sodipodi:guide
       orientation="1,0"
       position="300,180.09375"
       id="guide3977" />
    <sodipodi:guide
       orientation="1,0"
       position="400,80.25"
       id="guide4201" />
    <sodipodi:guide
       orientation="1,0"
       position="500,195.8125"
       id="guide4222" />
    <sodipodi:guide
       orientation="1,0"
       position="600,58"
       id="guide4260" />
    <sodipodi:guide
       orientation="1,0"
       position="700,334.91406"
       id="guide4262" />
  </sodipodi:namedview>
  <metadata
     id="metadata7">
    <rdf:RDF>
      <cc:Work
         rdf:about="">
        <dc:format>image/svg+xml</dc:format>
        <dc:type
           rdf:resource="http://purl.org/dc/dcmitype/StillImage" />
        <dc:title></dc:title>
      </cc:Work>
    </rdf:RDF>
  </metadata>
  <g
     inkscape:label="Layer 1"
     inkscape:groupmode="layer"
     id="layer1">
    <g
       id="g3868"
       transform="matrix(0.38639044,0,0,0.38639044,-1.204748,633.14708)">
      <path
         sodipodi:nodetypes="ccscszsccccc"
         inkscape:connector-curvature="0"
         id="path3956"
         transform="matrix(2.5880558,0,0,2.5880558,3.117955,-1638.6199)"
         d="m 144.25,974 7.1875,6.875 c -2.7826,3.96276 -3.71714,4.87645 -13.65625,17.8125 -9.59832,12.4925 -13.9898,17.862 -16.21875,20.8437 -2.22895,2.9818 -2.00911,6.8342 0.21875,7.9063 2.05144,0.9872 3.55952,-0.3458 4.875,-0.9687 1.31548,-0.623 9.60317,-11.8519 17.21875,-23.7813 9.81208,-15.3701 12.01449,-18.54146 12.0625,-18.6875 l 13.71875,9.53125 6.28125,-9.0625 -16.78125,-11.03125 z"
         style="fill:#8d4815;fill-opacity:1;stroke:none" />
      <path
         sodipodi:nodetypes="ccssssszszzcc"
         inkscape:connector-curvature="0"
         d="m 145.20259,881.30388 c -13.07332,3.701 -25.56983,9.43207 -36.90423,16.92477 -14.871957,9.83124 -27.68958,22.66445 -37.955468,37.23977 -4.894923,6.94972 -9.215135,14.28573 -13.395923,21.68707 -5.47917,9.6999 -10.734363,19.53673 -16.715734,28.93527 -4.569713,7.1804 -9.614588,14.20924 -12.345308,22.27044 -2.85925,8.4407 -2.99087,17.7897 -0.321835,26.2924 1.001314,3.1899 2.433097,6.3301 4.787685,8.7037 1.177294,1.1868 2.577729,2.1651 4.135019,2.7728 1.55729,0.6077 3.273863,0.8363 4.922991,0.5627 2.672401,-0.4434 5.024519,-2.1966 6.533663,-4.4462 1.509144,-2.2496 2.233048,-4.9567 2.439519,-7.6577 0.412943,-5.4022 -1.142761,-10.7537 -1.414742,-16.1647 -0.439609,-8.746 2.502959,-17.367 6.66078,-25.07405 4.157822,-7.70702 9.520029,-14.6849 14.415535,-21.94573 9.95652,-14.76715 18.100237,-30.87628 29.956778,-44.16625 14.29552,-16.02381 33.77912,-27.34404 54.77963,-31.82767 l -9.57836,-14.10662"
         id="path2989"
         inkscape:original-d="m 145.20259,881.30388 c -7.60495,-5.39229 -16.71423,3.4049 -36.90423,16.92477 -20.189998,13.51987 -29.000757,25.46963 -37.955468,37.23977 -5.235375,6.88141 -8.87247,14.46672 -13.395923,21.68707 -5.913941,9.43985 -11.287245,19.2061 -16.715734,28.93527 -4.137289,7.41502 -9.616563,14.25554 -12.345308,22.27044 -2.781824,8.1709 -4.85163,18.3908 -0.321835,26.2924 3.852796,6.7207 8.957137,13.4532 13.845695,12.0392 4.888558,-1.414 8.235204,-20.3662 7.55844,-28.2686 -0.664216,-7.7559 14.699645,-37.48586 21.076315,-47.01978 6.37667,-9.53391 13.642402,-30.93527 29.956778,-44.16625 16.31438,-13.23098 57.27279,-24.8268 54.77963,-31.82767 -3.34484,-4.92788 -6.56691,-9.70632 -9.57836,-14.10662 z"
         inkscape:path-effect="#path-effect2991"
         style="fill:#000000;fill-opacity:1;stroke:#000000;stroke-width:2.58805561px;stroke-linecap:butt;stroke-linejoin:miter;stroke-opacity:1" />
      <path
         sodipodi:nodetypes="cccccscc"
         inkscape:connector-curvature="0"
         d="m 140.15361,875.63843 c 10.0237,11.20458 18.17544,24.07984 24.01637,37.93266 6.8018,16.1317 10.45611,33.58359 10.69767,51.08896 13.69031,-4.69164 26.57004,-11.73859 37.90329,-20.73823 11.07364,-8.79348 20.66679,-19.44669 28.25577,-31.37809 -16.94466,-4.04621 -33.07242,-11.48313 -47.15186,-21.7429 -11.29642,-8.23178 -21.2746,-18.26859 -29.44004,-29.61306 l -24.2812,14.45066"
         id="path2997"
         inkscape:original-d="m 140.15361,875.63843 c 6.32569,24.5382 19.84576,26.38679 24.01637,37.93266 8.82234,24.84477 10.69767,51.08896 10.69767,51.08896 0,0 15.76912,-2.79489 37.90329,-20.73823 22.13416,-17.94334 28.25577,-31.37809 28.25577,-31.37809 0,0 -20.49188,4.04819 -47.15186,-21.7429 -26.65999,-25.79109 -29.44004,-29.61306 -29.44004,-29.61306 -6.48567,7.32843 -21.70451,9.95134 -24.2812,14.45066 z"
         inkscape:path-effect="#path-effect2999"
         style="fill:#000000;fill-opacity:1;stroke:#000000;stroke-width:2.58805561px;stroke-linecap:butt;stroke-linejoin:miter;stroke-opacity:1" />
      <path
         style="fill:#8d4815;fill-opacity:1;stroke:none"
         inkscape:path-effect="#path-effect3864"
         inkscape:original-d="m 145.91688,881.16995 c -7.60495,-5.39229 -17.42852,3.53883 -37.61852,17.0587 -20.189998,13.51987 -29.000757,25.46963 -37.955468,37.23977 -5.235375,6.88141 -8.87247,14.46672 -13.395923,21.68707 -5.913941,9.43985 -11.287245,19.2061 -16.715734,28.93527 -4.137289,7.41502 -9.616563,14.25554 -12.345308,22.27044 -2.781824,8.1709 -4.85163,18.3908 -0.321835,26.2924 3.852796,6.7207 8.957137,13.4532 13.845695,12.0392 4.888558,-1.414 8.235204,-20.3662 7.55844,-28.2686 -0.664216,-7.7559 14.699645,-37.48586 21.076315,-47.01978 6.37667,-9.53391 13.642402,-30.93527 29.956778,-44.16625 16.31438,-13.23098 57.98708,-24.96073 55.49392,-31.96159 -3.34484,-4.92789 -6.56691,-9.70633 -9.57836,-14.10663 z"
         id="path3774"
         d="m 145.91688,881.16995 c -13.33224,3.66113 -26.08007,9.44183 -37.61852,17.0587 -14.87867,9.82185 -27.691032,22.66291 -37.955468,37.23977 -4.894106,6.95028 -9.214883,14.28588 -13.395923,21.68707 -5.479507,9.69971 -10.73444,19.53668 -16.715734,28.93527 -4.569653,7.18044 -9.614571,14.20924 -12.345308,22.27044 -2.859269,8.4407 -2.990871,17.7897 -0.321835,26.2924 1.001314,3.1899 2.433097,6.3301 4.787684,8.7037 1.177294,1.1868 2.577729,2.1651 4.135019,2.7728 1.55729,0.6078 3.273864,0.8363 4.922992,0.5627 2.672399,-0.4434 5.024513,-2.1966 6.533652,-4.4462 1.50914,-2.2496 2.233039,-4.9567 2.439508,-7.6577 0.412938,-5.4022 -1.142763,-10.7537 -1.41472,-16.1647 -0.43957,-8.746 2.503083,-17.367 6.660932,-25.07398 4.157849,-7.707 9.520034,-14.68487 14.415383,-21.9458 9.956227,-14.76738 18.099151,-30.87721 29.956778,-44.16625 14.45719,-16.20241 34.22437,-27.58727 55.49392,-31.96159 l -9.57836,-14.10663"
         inkscape:connector-curvature="0"
         sodipodi:nodetypes="ccssssszszzcc" />
      <path
         style="fill:#636363;fill-opacity:1;stroke:none"
         inkscape:path-effect="#path-effect3862"
         inkscape:original-d="m 140.15361,875.63843 c 6.32569,24.5382 19.84576,26.38679 24.01637,37.93266 8.82234,24.84477 10.69767,51.08896 10.69767,51.08896 0,0 15.76912,-2.79489 37.90329,-20.73823 22.13416,-17.94334 28.25577,-31.37809 28.25577,-31.37809 0,0 -20.49188,4.04819 -47.15186,-21.7429 -26.65999,-25.79109 -29.44004,-29.61306 -29.44004,-29.61306 -6.48567,7.32843 -21.70451,9.95134 -24.2812,14.45066 z"
         id="path3776"
         d="m 140.15361,875.63843 c 10.0237,11.20458 18.17544,24.07984 24.01637,37.93266 6.8018,16.1317 10.45611,33.58359 10.69767,51.08896 13.69031,-4.69164 26.57004,-11.73859 37.90329,-20.73823 11.07364,-8.79348 20.66679,-19.44669 28.25577,-31.37809 -16.94466,-4.04621 -33.07242,-11.48313 -47.15186,-21.7429 -11.29642,-8.23178 -21.2746,-18.26859 -29.44004,-29.61306 l -24.2812,14.45066"
         inkscape:connector-curvature="0"
         sodipodi:nodetypes="cccccscc" />
      <path
         sodipodi:nodetypes="csccscc"
         inkscape:connector-curvature="0"
         id="path3788"
         d="m 231.23661,909.80804 c -3.8429,5.57036 -11.36437,14.78559 -24.8125,25.6875 -14.57154,11.8126 -26.34664,17.03978 -32.71875,19.25 0.563,4.54951 1.16964,9.91071 1.16964,9.91071 0,0 15.77208,-2.80666 37.90625,-20.75 22.13416,-17.94334 28.25,-31.375 28.25,-31.375 0,0 -3.86552,-1.73795 -9.79464,-2.72321 z"
         style="fill:url(#linearGradient3876);fill-opacity:1;stroke:none" />
      <path
         sodipodi:nodetypes="cccssssssssssssssscccscsc"
         inkscape:connector-curvature="0"
         id="path3813"
         d="m 164.4375,861.1875 -24.28125,14.4375 4.73661,5.79464 c -12.63637,3.70796 -25.59452,9.53682 -36.58036,16.79911 -14.871957,9.83124 -27.702863,22.67468 -37.96875,37.25 -4.894923,6.94972 -9.225462,14.28616 -13.40625,21.6875 -5.479171,9.6999 -10.737384,19.53895 -16.71875,28.9375 -4.569717,7.18042 -9.613036,14.21995 -12.34375,22.28125 -2.859232,8.4406 -2.981513,17.7785 -0.3125,26.2812 1.00131,3.1899 2.426663,6.314 4.78125,8.6875 1.177294,1.1868 2.598959,2.1736 4.15625,2.7813 1.557291,0.6077 3.257119,0.8361 4.90625,0.5625 2.672404,-0.4434 5.022105,-2.1879 6.53125,-4.4375 1.509145,-2.2496 2.231029,-4.9552 2.4375,-7.6563 0.412941,-5.4021 -1.134267,-10.7452 -1.40625,-16.1562 -0.439612,-8.746 2.498429,-17.3867 6.65625,-25.09375 4.157822,-7.70702 9.510743,-14.67666 14.40625,-21.9375 C 79.987771,956.6391 88.143458,940.53997 100,927.25 c 13.87406,-15.5514 34.0746,-26.97788 54.36607,-31.71875 l 9.79018,18.03125 c 6.8018,16.1317 10.47719,33.58838 10.71875,51.09375 13.69031,-4.69164 26.573,-11.75036 37.90625,-20.75 11.07364,-8.79348 20.66102,-19.4436 28.25,-31.375 -16.94466,-4.04621 -33.07681,-11.45898 -47.15625,-21.71875 -11.29642,-8.23178 -21.27206,-18.28053 -29.4375,-29.625 z"
         style="fill:none;stroke:#000000;stroke-width:3.62327805;stroke-linejoin:round;stroke-miterlimit:4;stroke-opacity:1;stroke-dasharray:none;filter:url(#filter3856)" />
      <path
         transform="matrix(0.82642934,0.56304045,-0.56304045,0.82642934,0,0)"
         style="fill:#636363;fill-opacity:1;stroke:none"
         d="m 838.84613,494.12746 51.97022,-0.81752 -0.22907,28.54051 -103.50749,-2.43275 z"
         id="rect3930"
         inkscape:connector-curvature="0"
         sodipodi:nodetypes="ccccc" />
      <path
         style="fill:none;stroke:#000000;stroke-linejoin:round;stroke-opacity:1"
         d="m 136,969.875 15.4375,11 c -2.7826,3.96276 -3.71714,4.87645 -13.65625,17.8125 -9.59832,12.4925 -13.9898,17.862 -16.21875,20.8437 -2.22895,2.9818 -2.00911,6.8342 0.21875,7.9063 2.05144,0.9872 3.55952,-0.3458 4.875,-0.9687 1.31548,-0.623 9.60317,-11.8519 17.21875,-23.7813 9.81208,-15.3701 12.01449,-18.54146 12.0625,-18.6875 l 13.71875,9.53125 6.28125,-9.0625 -16.78125,-11.03125 z"
         transform="matrix(2.5880558,0,0,2.5880558,3.117955,-1638.6199)"
         id="path3949"
         inkscape:connector-curvature="0"
         sodipodi:nodetypes="ccscszsccccc" />
      <g
         id="g4087"
         transform="translate(0,-15.528335)">
        <path
           sodipodi:nodetypes="czcczc"
           inkscape:connector-curvature="0"
           d="m 738.851,880.14277 c -21.44991,-12.25728 -48.20377,-14.81935 -71.59011,-6.85578 -23.38634,7.96357 -43.01681,26.32053 -52.52877,49.12101 -5.94254,14.24448 -8.02141,30.07921 -5.95706,45.37487 2.06436,15.29567 8.2666,30.01276 17.77271,42.17223 l 12.29704,1.2319 c -8.44261,-17.22551 -11.31606,-37.12737 -8.09077,-56.0375 4.1062,-24.07493 18.23187,-46.2807 38.29712,-60.20365 20.06525,-13.92295 45.81052,-19.38298 69.79984,-14.80308"
           id="path4007"
           inkscape:original-d="m 738.851,880.14277 c 0,0 -103.42773,8.73464 -124.11888,42.26523 -20.69115,33.53059 11.81565,87.5471 11.81565,87.5471 l 12.29704,1.2319 c 0,0 -57.31361,3.0493 -8.09077,-56.0375 C 679.97687,896.06267 738.851,880.14277 738.851,880.14277 z"
           inkscape:path-effect="#path-effect4009"
           style="fill:#636363;fill-opacity:1;stroke:none" />
        <path
           sodipodi:nodetypes="ccccccccc"
           inkscape:connector-curvature="0"
           d="m 626.13711,1015.1932 -25.37823,34.7571 -17.35391,17.5624 c 0.27773,3.7617 2.09822,7.3864 4.9498,9.8553 2.85158,2.469 6.69946,3.7521 10.46216,3.4887 3.40091,-0.2381 6.63766,-1.6856 9.39814,-3.6863 2.76048,-2.0006 5.0851,-4.54 7.25047,-7.1732 12.83735,-15.6111 20.65646,-35.2857 22.03707,-55.45 l 0.38462,-3.7893 -10.59951,-0.8495 -1.15061,5.2848"
           id="path4022"
           inkscape:original-d="m 626.13711,1015.1932 c -10.53145,8.1957 -14.94058,26.4034 -25.37823,34.7571 -5.99858,5.6852 -17.35391,17.5624 -17.35391,17.5624 0,0 9.27256,12.0987 15.41196,13.344 7.74522,1.4269 13.02442,-5.0575 16.64861,-10.8595 5.9093,-10.794 16.08381,-44.7008 22.03707,-55.45 2.35629,-6.1466 0.38462,-3.7893 0.38462,-3.7893 l -10.59951,-0.8495 c 0,0 2.79452,4.3765 -1.15061,5.2848 z"
           inkscape:path-effect="#path-effect4024"
           style="fill:#8d4815;fill-opacity:1;stroke:none" />
        <path
           sodipodi:nodetypes="ssscccsscccs"
           inkscape:connector-curvature="0"
           id="path4062"
           transform="matrix(2.5880558,0,0,2.5880558,3.117955,-1638.6199)"
           d="m 275.25,970.625 c -7.07168,0.099 -14.12273,2.27773 -19.9375,6.3125 -7.75302,5.37969 -13.2259,13.97893 -14.8125,23.2813 -1.24622,7.3066 -0.13714,15.0004 3.125,21.6562 0.84623,1.8801 -0.005,0.01 0.85937,1.8594 l 1.14063,0.1406 c -3.26214,-6.6558 -4.37122,-14.3496 -3.125,-21.6562 1.5866,-9.30237 7.05948,-17.90161 14.8125,-23.2813 7.75302,-5.37969 17.69951,-7.48838 26.96875,-5.71875 -1.74264,-0.99581 -3.57606,-1.80715 -5.46875,-2.46875 -0.009,-0.003 -0.0221,0.003 -0.0312,0 -1.17425,-0.10116 -2.35264,-0.14149 -3.53125,-0.125 z"
           style="fill:url(#linearGradient4093);fill-opacity:1;stroke:none" />
        <path
           sodipodi:nodetypes="csscssssccccsccccc"
           inkscape:connector-curvature="0"
           id="path4047"
           d="m 638.80916,1011.2257 c -8.44259,-17.22555 -11.31296,-37.13753 -8.08767,-56.04742 4.10621,-24.07505 18.27033,-46.33037 38.33558,-60.25331 20.06525,-13.92293 45.80732,-19.38034 69.79663,-14.80044 -13.40621,-7.6608 -28.88762,-11.51995 -44.32047,-11.40362 -9.25969,0.0699 -18.48557,1.54277 -27.25545,4.5291 -23.38635,7.96357 -43.05792,26.37257 -52.56989,49.17306 -5.94254,14.24448 -7.96837,30.07631 -5.904,45.37198 2.06437,15.29567 8.2059,29.97719 17.712,42.13665 l -0.40438,5.2569 -25.31442,34.7772 -17.3885,17.5501 c 0.27772,3.7618 2.08191,7.398 4.93348,9.867 2.85157,2.469 6.75128,3.741 10.51397,3.4776 3.40092,-0.2381 6.62123,-1.7195 9.38171,-3.7201 2.76047,-2.0008 5.03265,-4.4841 7.19803,-7.1171 12.83735,-15.6112 20.69875,-35.3174 22.07935,-55.4818 z"
           style="fill:none;stroke:#000000;stroke-width:2.58805585px;stroke-linecap:butt;stroke-linejoin:miter;stroke-opacity:1" />
      </g>
      <g
         id="g4195"
         transform="matrix(0.52296255,-0.52296255,0.52296255,0.52296255,31.61021,1125.088)">
        <path
           id="rect4097"
           transform="matrix(2.5880558,0,0,2.5880558,3.117955,-1638.6199)"
           d="m 332.5,882.875 0,20.5 1.71875,0 2.40625,4.125 2.4375,4.25 2.46875,-4.25 2.375,-4.125 1.625,0 2.375,4.125 2.46875,4.25 2.4375,-4.25 2.40625,-4.125 1.59375,0 2.40625,4.125 2.4375,4.25 2.46875,-4.25 2.375,-4.125 1.625,0 2.375,4.125 2.46875,4.25 2.4375,-4.25 2.40625,-4.125 1.59375,0 2.40625,4.125 2.4375,4.25 2.46875,-4.25 2.375,-4.125 1.625,0 2.375,4.125 2.46875,4.25 2.4375,-4.25 2.40625,-4.125 1.59375,0 2.40625,4.125 2.4375,4.25 2.46875,-4.25 2.375,-4.125 1.625,0 2.375,4.125 2.46875,4.25 2.4375,-4.25 2.40625,-4.125 1.59375,0 2.40625,4.125 2.4375,4.25 2.46875,-4.25 2.375,-4.125 0.71875,0 0,-20.5 -102.5,0 z"
           style="fill:#636363;fill-opacity:1;stroke:none"
           inkscape:connector-curvature="0" />
        <rect
           style="fill:#8d4815;fill-opacity:1;stroke:none"
           id="rect4167"
           width="15.528335"
           height="144.93112"
           x="1126.9812"
           y="604.8678"
           rx="5.4084697"
           ry="5.4084697" />
        <rect
           ry="5.4084697"
           rx="5.4084697"
           y="604.8678"
           x="852.64728"
           height="144.93112"
           width="15.528335"
           id="rect4095"
           style="fill:#8d4815;fill-opacity:1;stroke:none" />
        <path
           id="rect4169"
           transform="matrix(2.5880558,0,0,2.5880558,3.117955,-1638.6199)"
           d="m 329.78125,866.875 c -0.85624,0 -1.53125,0.67501 -1.53125,1.53125 l 0,52.90625 c 0,0.85624 0.67501,1.5625 1.53125,1.5625 l 2.9375,0 c 0.85624,0 1.53125,-0.70626 1.53125,-1.5625 l 0,-17.90625 2.375,4.09375 2.4375,4.25 2.46875,-4.25 2.375,-4.125 1.625,0 2.375,4.125 2.46875,4.25 2.4375,-4.25 2.40625,-4.125 1.59375,0 2.40625,4.125 2.4375,4.25 2.46875,-4.25 2.375,-4.125 1.625,0 2.375,4.125 2.46875,4.25 2.4375,-4.25 2.40625,-4.125 1.59375,0 2.40625,4.125 2.4375,4.25 2.46875,-4.25 2.375,-4.125 1.625,0 2.375,4.125 2.46875,4.25 2.4375,-4.25 2.40625,-4.125 1.59375,0 2.40625,4.125 2.4375,4.25 2.46875,-4.25 2.375,-4.125 1.625,0 2.375,4.125 2.46875,4.25 2.4375,-4.25 2.40625,-4.125 1.59375,0 2.40625,4.125 2.4375,4.25 2.46875,-4.25 2.34375,-4.0625 0,17.875 c 0,0.85624 0.67501,1.5625 1.53125,1.5625 l 2.9375,0 c 0.85624,0 1.53125,-0.70626 1.53125,-1.5625 l 0,-52.90625 c 0,-0.85624 -0.67501,-1.53125 -1.53125,-1.53125 l -2.9375,0 c -0.85624,0 -1.53125,0.67501 -1.53125,1.53125 l 0,14.46875 -100,0 0,-14.46875 c 0,-0.85624 -0.67501,-1.53125 -1.53125,-1.53125 l -2.9375,0 z"
           style="fill:none;stroke:#000000;stroke-width:1.35211742;stroke-opacity:1"
           inkscape:connector-curvature="0" />
      </g>
      <g
         id="g4252"
         transform="matrix(0.70710678,0.70710678,-0.70710678,0.70710678,1019.3381,-511.61718)">
        <path
           id="rect4224"
           transform="matrix(2.5880558,0,0,2.5880558,3.117955,-1638.6199)"
           d="m 438.59375,974.0625 0,62.75 -6.9375,0 c -0.85624,0 -1.5625,0.675 -1.5625,1.5313 l 0,1.3437 c 0,0.8562 0.70626,1.5313 1.5625,1.5313 l 17.59375,0 c 0.85624,0 1.53125,-0.6751 1.53125,-1.5313 l 0,-1.3437 c 0,-0.8563 -0.67501,-1.5313 -1.53125,-1.5313 l -6.96875,0 0,-62.75 -3.6875,0 z"
           style="fill:#8d4815;fill-opacity:1;stroke:none"
           inkscape:connector-curvature="0" />
        <path
           sodipodi:nodetypes="cccccc"
           inkscape:connector-curvature="0"
           id="rect4228"
           d="m 1111.6598,826.14655 32.9697,-35.37164 32.9696,35.37164 0,56.58706 -65.9393,0 z"
           style="fill:#636363;fill-opacity:1;stroke:none" />
        <path
           id="path4239"
           transform="matrix(2.5880558,0,0,2.5880558,3.117955,-1638.6199)"
           d="m 441.0625,938.6875 -12.71875,13.6875 0,4 12.71875,-13.6875 12.75,13.6875 0,-4 -12.75,-13.6875 z"
           style="fill:url(#linearGradient4258);fill-opacity:1;stroke:none"
           inkscape:connector-curvature="0" />
        <path
           inkscape:connector-curvature="0"
           id="rect4231"
           d="m 1144.6123,790.75573 -32.9168,35.42401 0,56.53285 26.5276,0 0,161.99611 -17.9547,0 c -2.216,0 -4.0438,1.7469 -4.0438,3.9631 l 0,3.4776 c 0,2.2159 1.8278,3.9631 4.0438,3.9631 l 45.5336,0 c 2.216,0 3.963,-1.7472 3.963,-3.9631 l 0,-3.4776 c 0,-2.2162 -1.747,-3.9631 -3.963,-3.9631 l -18.0355,0 0,-161.99611 29.8435,0 0,-56.53285 -32.9977,-35.42401 z"
           style="fill:none;stroke:#000000;stroke-width:3.62327766;stroke-linecap:round;stroke-linejoin:round;stroke-miterlimit:4;stroke-opacity:1;stroke-dasharray:none" />
      </g>
      <g
         id="g4341"
         transform="translate(-20.704447,-5.1761115)">
        <path
           sodipodi:nodetypes="ccascc"
           inkscape:connector-curvature="0"
           d="m 1454.7335,900.80521 c -25.7935,47.67026 -57.8395,91.95268 -95.058,131.35499 -2.5256,2.6737 -5.1582,5.4648 -6.2163,8.9872 -0.5291,1.7613 -0.6285,3.6799 -0.08,5.4352 0.5484,1.7553 1.7833,3.3261 3.4534,4.0959 1.1085,0.511 2.3678,0.6579 3.579,0.5066 1.2112,-0.1513 2.3757,-0.5924 3.4332,-1.202 2.1149,-1.2191 3.778,-3.0734 5.3939,-4.9032 37.3041,-42.2411 70.0691,-88.48822 97.5497,-137.68913 l -12.0548,-6.58556"
           id="path4320"
           inkscape:original-d="m 1454.7335,900.80521 c -15.5968,48.68073 -71.7355,83.17812 -95.058,131.35499 -2.0562,4.4905 -7.8161,14.7408 -2.843,18.5183 3.6129,2.7443 5.1175,3.5926 12.4061,-5.5986 34.0009,-42.8767 69.0443,-97.00399 97.5497,-137.68913 -21.3358,-15.87063 21.2347,-24.37422 -12.0548,-6.58556 z"
           inkscape:path-effect="#path-effect4322"
           style="fill:#8d4815;fill-opacity:1;stroke:none" />
        <path
           sodipodi:nodetypes="cacac"
           inkscape:connector-curvature="0"
           d="m 1359.1715,879.98858 c 35.7303,-12.3587 76.6315,-8.85243 109.737,9.40722 35.7123,19.69747 61.5949,56.31674 68.2455,96.55518 -16.4736,-34.04354 -43.4794,-62.89945 -76.3583,-81.58949 -30.6881,-17.44463 -66.362,-26.00045 -101.6242,-24.37291"
           id="path4280"
           inkscape:original-d="m 1359.1715,879.98858 c 30.6464,-12.02322 77.8861,-8.85131 109.737,9.40722 34.1931,19.60116 68.1182,58.20517 68.2455,96.55518 -27.2711,-25.44394 -44.1622,-62.85706 -76.3583,-81.58949 -30.1098,-17.51859 -99.9328,-20.64137 -101.6242,-24.37291 z"
           inkscape:path-effect="#path-effect4282"
           style="fill:#636363;fill-opacity:1;stroke:none" />
        <path
           sodipodi:nodetypes="sccscsccccccss"
           inkscape:connector-curvature="0"
           id="path4334"
           d="m 1400.8299,872.68387 c -14.1694,0.23111 -28.2527,2.6444 -41.6516,7.27891 26.7103,-5.08022 70.3395,6.79363 96.3072,21.5418 -26.8141,48.45087 -58.9577,92.13532 -97.1159,133.09442 -1.9236,2.0647 -3.3313,3.9768 -4.2865,6.6319 -0.4776,1.3279 -0.1892,5.4897 0.081,6.8746 0.27,1.3849 1.5224,1.7659 2.669,2.5881 1.0277,0.7371 2.296,1.0422 3.5586,0.9705 1.2627,-0.072 2.5558,-0.4801 3.6394,-1.1323 2.167,-1.3044 5.6075,-4.5216 7.1171,-6.5509 40.115,-46.62481 65.6889,-87.74618 95.4346,-136.19652 30.2576,18.6994 55.1091,46.10298 70.6054,78.12706 -6.6506,-40.23857 -32.5476,-76.78862 -68.2599,-96.48608 -20.691,-11.41229 -44.4826,-17.12667 -68.0982,-16.74149 z"
           style="fill:none;stroke:#000000;stroke-width:2.58805585px;stroke-linecap:butt;stroke-linejoin:miter;stroke-opacity:1" />
      </g>
      <path
         style="fill:#636363;fill-opacity:1;stroke:#000000;stroke-width:2.58805585px;stroke-linecap:butt;stroke-linejoin:miter;stroke-opacity:1"
         d="m 1602.3364,986.76681 c -3.2389,4.19257 -6.315,8.52538 -9.1974,12.97668 l 2.8229,3.94531 c 29.4542,-43.78781 77.3824,-74.62615 129.346,-83.60562 -9.8122,52.10409 -41.6499,99.78472 -86.2496,128.52962 l 3.8472,2.8835 c 46.8845,-29.0698 80.6643,-78.45559 90.9403,-132.63234 0.3928,-0.0493 0.7745,-0.13139 1.1677,-0.17817 5.0029,-0.59513 10.0537,-1.01897 15.0798,-1.36665 5.4039,-0.3738 10.9683,-0.7227 15.8928,-2.97921 3.3132,-1.51833 6.223,-3.86654 8.4006,-6.78882 2.1775,-2.92257 3.6081,-6.40667 4.1152,-10.0157 0.5073,-3.60886 0.085,-7.36447 -1.2031,-10.77386 -1.2877,-3.40929 -3.4267,-6.46046 -6.1931,-8.8331 3.8381,4.84687 5.1939,11.57558 3.5022,17.5221 -1.6917,5.94643 -6.4007,10.95447 -12.2154,13.05559 -3.2167,1.16225 -6.6717,1.46991 -10.0919,1.48041 -3.4204,0.0105 -6.8401,-0.26013 -10.2597,-0.19305 -2.2609,0.0444 -4.5365,0.26995 -6.7828,0.53711 0.2561,-1.96932 0.4607,-3.95614 0.5385,-5.94015 0.1341,-3.41744 -0.066,-6.85376 0.011,-10.27294 0.078,-3.41925 0.4318,-6.88362 1.657,-10.07682 2.2146,-5.77214 7.3156,-10.31465 13.2944,-11.88945 5.9788,-1.57485 12.6705,-0.10799 17.4416,3.8241 -2.3182,-2.81216 -5.3204,-5.01106 -8.7041,-6.36511 -3.3837,-1.35406 -7.1521,-1.8648 -10.7705,-1.42838 -3.6184,0.43644 -7.0864,1.77041 -10.051,3.89021 -2.9646,2.1198 -5.3715,5.02404 -6.9544,8.30673 -2.3527,4.87899 -2.8246,10.39621 -3.3042,15.79152 -0.4461,5.01804 -0.9357,10.05696 -1.6287,15.04696 -0.016,0.11145 -0.052,0.22111 -0.068,0.33254 -48.8529,8.48196 -94.0895,36.0005 -124.3839,75.21693 z"
         id="path4350"
         inkscape:connector-curvature="0" />
    </g>
  </g>
</svg>
